:FULLY-SPECIFIED
:FORCE-ALL-JOINTS-BE-3DOF
:DEGREES
849
root 3.88405 16.3176 28.1721 -9.11072 6.61341 -0.70589
lfemur -23.0275 0.775069 -17.2427
ltibia 37.0174 -0 0
lfoot -7.24658 -12.8078 -0.014864
ltoes 2.37155 -0 0
rfemur -33.664 -3.39803 1.03425
rtibia 102.651 -0 0
rfoot 35.8984 20.8093 0.208457
rtoes -3.98737 0 0
lowerback 3.92749 3.09087 -2.64368
upperback 0.969538 4.01894 0.340072
thorax -1.39742 2.01871 1.64592
lowerneck -6.33519 -3.76698 2.48667
upperneck 9.05309 -5.4501 1.34672
head 4.06201 -2.53922 -0.28677
lclavicle 0 0 0
lhumerus -50.6911 -10.272 84.3084
lradius 55.7233 -0 0
lwrist 20.8698 0 0
lhand -2.90153 3.54406 0.00356283
lfingers 0 0 0
lthumb 22.8074 32.2044 -0.00043012
rclavicle 0 0 0
rhumerus -38.5024 14.75 -66.9027
rradius 51.0242 -0 0
rwrist 9.1865 0 0
rhand -35.7968 -32.5249 0.020688
rfingers 0 0 0
rthumb -8.91316 -62.2924 0.0186872
850
root 3.90301 16.3361 28.2682 -9.66424 7.56624 -0.650491
lfemur -22.1267 1.12075 -17.5019
ltibia 36.7829 -0 0
lfoot -7.04545 -13.9309 -0.0328058
ltoes 4.03121 -0 0
rfemur -35.9984 -3.15067 1.27919
rtibia 100.726 -0 0
rfoot 34.2092 18.95 0.460619
rtoes -3.11715 0 0
lowerback 4.67582 2.72157 -2.80466
upperback 1.23488 3.49813 0.234812
thorax -1.50713 1.75945 1.66378
lowerneck -6.30477 -3.74191 2.47792
upperneck 9.00592 -5.42638 1.48124
head 4.04406 -2.52251 -0.238291
lclavicle 0 0 0
lhumerus -49.6716 -11.1269 84.0756
lradius 55.6075 -0 0
lwrist 21.0512 0 0
lhand -2.24359 3.62647 0.00786182
lfingers 0 0 0
lthumb 23.4373 32.1941 -0.000949104
rclavicle 0 0 0
rhumerus -39.3408 13.7029 -66.0607
rradius 51.0949 -0 0
rwrist 8.58966 0 0
rhand -34.5955 -32.2633 0.0456619
rfingers 0 0 0
rthumb -7.75316 -62.0476 0.0412447
851
root 3.9164 16.3571 28.3562 -10.3424 8.7333 -0.595174
lfemur -21.0259 1.54938 -17.8118
ltibia 36.4958 -0 0
lfoot -6.79883 -15.3057 -0.0493973
ltoes 6.06286 -0 0
rfemur -38.8538 -2.83463 1.5649
rtibia 98.3688 -0 0
rfoot 32.1316 16.6651 0.694333
rtoes -2.05188 0 0
lowerback 5.59301 2.27241 -3.00822
upperback 1.56083 2.86126 0.102745
thorax -1.64152 1.44213 1.68632
lowerneck -6.26753 -3.71121 2.46722
upperneck 8.94824 -5.39719 1.64588
head 4.0221 -2.50205 -0.178954
lclavicle 0 0 0
lhumerus -48.4145 -12.1677 83.7684
lradius 55.4657 -0 0
lwrist 21.2732 0 0
lhand -1.43816 3.7274 0.0118357
lfingers 0 0 0
lthumb 24.2085 32.1813 -0.00142884
rclavicle 0 0 0
rhumerus -40.3836 12.4377 -65.0136
rradius 51.1815 -0 0
rwrist 7.85904 0 0
rhand -33.1247 -31.9424 0.0687585
rfingers 0 0 0
rthumb -6.33305 -61.7475 0.0621056
852
root 3.92505 16.3795 28.4354 -11.1031 10.0407 -0.549664
lfemur -19.7958 2.03628 -18.1491
ltibia 36.1743 -0 0
lfoot -6.52229 -16.8451 -0.0609467
ltoes 8.33774 -0 0
rfemur -42.0482 -2.46441 1.86557
rtibia 95.7294 -0 0
rfoot 29.7961 14.0985 0.857325
rtoes -0.859081 0 0
lowerback 6.62159 1.77342 -3.24459
upperback 1.92735 2.14904 -0.0493567
thorax -1.79213 1.08688 1.71244
lowerneck -6.22585 -3.67684 2.45527
upperneck 8.88377 -5.36432 1.83018
head 3.99754 -2.4791 -0.112524
lclavicle 0 0 0
lhumerus -46.994 -13.3248 83.3952
lradius 55.3069 -0 0
lwrist 21.5219 0 0
lhand -0.5363 3.84047 0.0146011
lfingers 0 0 0
lthumb 25.072 32.1671 -0.00176267
rclavicle 0 0 0
rhumerus -41.5734 11.0436 -63.8192
rradius 51.2784 -0 0
rwrist 7.04095 0 0
rhand -31.4778 -31.5826 0.0848372
rfingers 0 0 0
rthumb -4.74282 -61.4109 0.0766275
853
root 3.92982 16.4023 28.5055 -11.9044 11.4145 -0.520721
lfemur -18.5065 2.55535 -18.492
ltibia 35.8367 -0 0
lfoot -6.23162 -18.4621 -0.0650731
ltoes 10.7271 -0 0
rfemur -45.4004 -2.05818 2.15855
rtibia 92.9573 -0 0
rfoot 27.3379 11.3978 0.91562
rtoes 0.393734 -0 0
lowerback 7.70388 1.25398 -3.50239
upperback 2.31419 1.40206 -0.213952
thorax -1.95048 0.713837 1.74088
lowerneck -6.18208 -3.64072 2.44275
upperneck 8.81617 -5.32956 2.02371
head 3.97178 -2.45497 -0.0427631
lclavicle 0 0 0
lhumerus -45.486 -14.53 82.9695
lradius 55.1401 -0 0
lwrist 21.7831 0 0
lhand 0.410939 3.95926 0.015589
lfingers 0 0 0
lthumb 25.9789 32.1521 -0.00188192
rclavicle 0 0 0
rhumerus -42.8489 9.60602 -62.539
rradius 51.3802 -0 0
rwrist 6.1817 0 0
rhand -29.7479 -31.2043 0.0905822
rfingers 0 0 0
rthumb -3.07251 -61.0571 0.081816
854
root 3.93155 16.4245 28.5661 -12.7044 12.7803 -0.511329
lfemur -17.2275 3.0788 -18.8215
ltibia 35.501 -0 0
lfoot -5.94269 -20.0694 -0.0610446
ltoes 13.1021 -0 0
rfemur -48.7295 -1.63811 2.42565
rtibia 90.2018 -0 0
rfoot 24.8944 8.71325 0.858709
rtoes 1.63905 -0 0
lowerback 8.78183 0.742569 -3.76829
upperback 2.70076 0.660672 -0.382518
thorax -2.10805 0.343106 1.77016
lowerneck -6.13859 -3.60481 2.43033
upperneck 8.7491 -5.29479 2.21603
head 3.9462 -2.43095 0.0265679
lclavicle 0 0 0
lhumerus -43.9693 -15.7167 82.5114
lradius 54.9743 -0 0
lwrist 22.0427 0 0
lhand 1.35251 4.07735 0.0146246
lfingers 0 0 0
lthumb 26.8804 32.1372 -0.0017655
rclavicle 0 0 0
rhumerus -44.1437 8.20554 -61.2396
rradius 51.4814 -0 0
rwrist 5.3276 0 0
rhand -28.0284 -30.8283 0.0849736
rfingers 0 0 0
rthumb -1.41221 -60.7054 0.0767506
855
root 3.93107 16.4449 28.6166 -13.4601 14.0638 -0.520369
lfemur -16.0276 3.5773 -19.1204
ltibia 35.1856 -0 0
lfoot -5.67136 -21.5798 -0.0498736
ltoes 15.3341 -0 0
rfemur -51.8558 -1.22985 2.65399
rtibia 87.6122 -0 0
rfoot 22.6029 6.19484 0.70105
rtoes 2.80934 -0 0
lowerback 9.79691 0.26661 -4.02688
upperback 3.06599 -0.0350012 -0.545474
thorax -2.2563 -0.00521716 1.79861
lowerneck -6.09772 -3.57105 2.41868
upperneck 8.68618 -5.26191 2.39671
head 3.92219 -2.40836 0.0917115
lclavicle 0 0 0
lhumerus -42.5268 -16.8209 82.0486
lradius 54.8185 -0 0
lwrist 22.2866 0 0
lhand 2.23735 4.18828 0.0119498
lfingers 0 0 0
lthumb 27.7276 32.1232 -0.00144261
rclavicle 0 0 0
rhumerus -45.3856 6.91645 -59.9936
rradius 51.5765 -0 0
rwrist 4.52495 0 0
rhand -26.4126 -30.4753 0.0694216
rfingers 0 0 0
rthumb 0.148024 -60.3751 0.0627045
